<svg fill="none" height="619" viewBox="0 0 2242 619" width="2242" xmlns="http://www.w3.org/2000/svg" xmlns:xlink="http://www.w3.org/1999/xlink"><filter id="a" color-interpolation-filters="sRGB" filterUnits="userSpaceOnUse" height="41.0957" width="41.0957" x="1404.87" y="281.867"><feFlood flood-opacity="0" result="BackgroundImageFix"/><feBlend in="SourceGraphic" in2="BackgroundImageFix" mode="normal" result="shape"/><feGaussianBlur result="effect1_foregroundBlur_1886_35644" stdDeviation="7.77345"/></filter><linearGradient id="b"><stop offset="0" stop-color="#cf222e"/><stop offset="1" stop-color="#cf222e" stop-opacity="0"/></linearGradient><radialGradient id="c" cx="0" cy="0" gradientTransform="matrix(0 526.149 -1119.19 0 1121 0)" gradientUnits="userSpaceOnUse" r="1" xlink:href="#b"/><linearGradient id="d"><stop offset="0" stop-color="#cf222e" stop-opacity="0"/><stop offset=".895" stop-color="#cf222e"/></linearGradient><linearGradient id="e" gradientUnits="userSpaceOnUse" x1="0" x2="229" xlink:href="#d" y1=".5" y2=".5"/><linearGradient id="f" gradientUnits="userSpaceOnUse" x1="0" x2="237" xlink:href="#d" y1=".5" y2=".5"/><linearGradient id="g" gradientUnits="userSpaceOnUse" x1="0" x2="304" xlink:href="#d" y1=".5" y2=".5"/><linearGradient id="h" gradientUnits="userSpaceOnUse" x1="0" x2="357" xlink:href="#d" y1=".5" y2=".5"/><linearGradient id="i" gradientUnits="userSpaceOnUse" x1="0" x2="428" xlink:href="#d" y1=".5" y2=".5"/><linearGradient id="j" gradientUnits="userSpaceOnUse" x1="0" x2="474" xlink:href="#d" y1=".5" y2=".5"/><linearGradient id="k" gradientUnits="userSpaceOnUse" x1="0" x2="514.97" xlink:href="#d" y1=".5" y2=".5"/><linearGradient id="l" gradientUnits="userSpaceOnUse" x1="747.521" x2="747.522" xlink:href="#d" y1="405.998" y2="-.001953"/><linearGradient id="m" gradientUnits="userSpaceOnUse" x1="809.771" x2="809.771" xlink:href="#d" y1="324.998" y2="-.001953"/><linearGradient id="n" gradientUnits="userSpaceOnUse" x1="872.023" x2="872.023" xlink:href="#d" y1="269.998" y2="-.001953"/><linearGradient id="o" gradientUnits="userSpaceOnUse" x1="934.275" x2="934.275" xlink:href="#d" y1="228.998" y2="-.001953"/><linearGradient id="p" gradientUnits="userSpaceOnUse" x1="996.527" x2="996.527" xlink:href="#d" y1="200.998" y2="-.001953"/><linearGradient id="q" gradientUnits="userSpaceOnUse" x1="0" x2="185" xlink:href="#d" y1=".5" y2=".5"/><linearGradient id="r" gradientUnits="userSpaceOnUse" x1="1183.28" x2="1183.28" xlink:href="#d" y1="184.998" y2="-.001953"/><linearGradient id="s" gradientUnits="userSpaceOnUse" x1="1245.54" x2="1245.54" xlink:href="#d" y1="200.998" y2="-.001953"/><linearGradient id="t" gradientUnits="userSpaceOnUse" x1="1307.79" x2="1307.79" xlink:href="#d" y1="223.998" y2="-.001953"/><linearGradient id="u" gradientUnits="userSpaceOnUse" x1="1370.04" x2="1370.04" xlink:href="#d" y1="261.998" y2="-.001953"/><linearGradient id="v" gradientUnits="userSpaceOnUse" x1="1432.29" x2="1432.29" xlink:href="#d" y1="312.998" y2="-.001953"/><linearGradient id="w" gradientUnits="userSpaceOnUse" x1="1494.54" x2="1494.54" xlink:href="#d" y1="393.998" y2="-.001953"/><linearGradient id="x"><stop offset="0" stop-color="#cf222e" stop-opacity="0"/><stop offset=".105" stop-color="#cf222e"/><stop offset=".92" stop-color="#cf222e"/><stop offset="1" stop-color="#cf222e" stop-opacity="0"/></linearGradient><linearGradient id="y" gradientUnits="userSpaceOnUse" x1="0" x2="734" xlink:href="#x" y1="431.662" y2="431.662"/><linearGradient id="z" gradientUnits="userSpaceOnUse" x1="1514.06" x2="2241.06" xlink:href="#x" y1="431.662" y2="431.662"/><linearGradient id="A" gradientUnits="userSpaceOnUse" x1="0" x2="777" xlink:href="#x" y1="367.066" y2="367.066"/><linearGradient id="B" gradientUnits="userSpaceOnUse" x1="1470.06" x2="2241.06" xlink:href="#x" y1="367.066" y2="367.066"/><linearGradient id="C" gradientUnits="userSpaceOnUse" x1="0" x2="834" y1="302.473" y2="302.473"><stop offset=".139961" stop-color="#cf222e" stop-opacity="0"/><stop offset=".303793" stop-color="#cf222e"/><stop offset=".92" stop-color="#cf222e"/><stop offset="1" stop-color="#cf222e" stop-opacity="0"/></linearGradient><linearGradient id="D" gradientUnits="userSpaceOnUse" x1="1419.06" x2="2241.06" y1="302.473" y2="302.473"><stop offset="0" stop-color="#cf222e" stop-opacity="0"/><stop offset=".105" stop-color="#cf222e"/><stop offset=".586234" stop-color="#cf222e"/><stop offset=".87753" stop-color="#cf222e" stop-opacity="0"/></linearGradient><linearGradient id="E" gradientUnits="userSpaceOnUse" x1="0" x2="919" y1="237.877" y2="237.877"><stop offset=".124101" stop-color="#cf222e" stop-opacity="0"/><stop offset=".299017" stop-color="#cf222e"/><stop offset=".92" stop-color="#cf222e"/><stop offset="1" stop-color="#cf222e" stop-opacity="0"/></linearGradient><linearGradient id="F" gradientUnits="userSpaceOnUse" x1="1332.06" x2="2241.06" y1="237.877" y2="237.877"><stop offset="0" stop-color="#cf222e" stop-opacity="0"/><stop offset=".105" stop-color="#cf222e"/><stop offset=".78016" stop-color="#cf222e"/><stop offset="1" stop-color="#cf222e" stop-opacity="0"/></linearGradient><linearGradient id="G" gradientUnits="userSpaceOnUse" x1="0" x2="2241.06" y1=".5" y2=".5"><stop offset=".075" stop-color="#cf222e" stop-opacity=".309804"/><stop offset=".225" stop-color="#cf222e"/><stop offset=".825" stop-color="#cf222e"/><stop offset=".95" stop-color="#cf222e" stop-opacity="0"/></linearGradient><linearGradient id="H" gradientUnits="userSpaceOnUse" x1="0" x2="2241.06" y1=".5" y2=".5"><stop offset=".03" stop-color="#cf222e" stop-opacity="0"/><stop offset=".17" stop-color="#cf222e"/><stop offset=".83" stop-color="#cf222e"/><stop offset=".97" stop-color="#cf222e" stop-opacity="0"/></linearGradient><linearGradient id="I" gradientUnits="userSpaceOnUse" x1="0" x2="2241.06" y1=".5" y2=".5"><stop offset="0" stop-color="#cf222e" stop-opacity="0"/><stop offset=".155" stop-color="#cf222e"/><stop offset=".825" stop-color="#cf222e"/><stop offset="1" stop-color="#cf222e" stop-opacity="0"/></linearGradient><linearGradient id="J" gradientUnits="userSpaceOnUse" x1="0" x2="2241.06" xlink:href="#x" y1=".5" y2=".5"/><linearGradient id="K" gradientUnits="userSpaceOnUse" x1="1087.17" x2="1087.17" y1="595.298" y2="179.059"><stop offset="0" stop-color="#cf222e" stop-opacity="0"/><stop offset=".4" stop-color="#cf222e"/></linearGradient><linearGradient id="L" gradientUnits="userSpaceOnUse" x1="1233" x2="1246.5" y1="523.5" y2="12.5"><stop offset=".114378" stop-color="#cf222e" stop-opacity="0"/><stop offset=".392054" stop-color="#cf222e"/></linearGradient><linearGradient id="M" gradientUnits="userSpaceOnUse" x1="1124.5" x2="1124.5" xlink:href="#b" y1="179.059" y2="616.5"/><linearGradient id="N" gradientUnits="userSpaceOnUse" x1="1125" x2="1125" y1="618" y2="225.5"><stop offset="0" stop-color="#cf222e" stop-opacity="0"/><stop offset=".33973" stop-color="#cf222e" stop-opacity=".2"/></linearGradient><clipPath id="O"><path d="m0 0h2242v619h-2242z"/></clipPath><g clip-path="url(#O)"><path d="m0 0h2242v1054h-2242z" fill="url(#c)" fill-opacity=".1"/><path d="m0 0h2242v1054h-2242z" fill="url(#c)" fill-opacity=".3"/><g stroke-width="3"><g opacity=".4"><path d="m0-1.5h229" opacity=".3" stroke="url(#e)" transform="matrix(-.0000001 -1 -1 .00000002 62.252 228.998)"/><path d="m0-1.5h237" opacity=".6" stroke="url(#f)" transform="matrix(-.00000009 -1 -1 .00000002 124.504 236.998)"/><path d="m0-1.5h304" opacity=".8" stroke="url(#g)" transform="matrix(-.00000007 -1 -1 .00000003 186.756 303.998)"/><path d="m0-1.5h357" stroke="url(#h)" transform="matrix(-.00000006 -1 -1 .00000003 249.008 356.998)"/><path d="m0-1.5h428" stroke="url(#i)" transform="matrix(-.00000005 -1 -1 .00000004 311.258 427.998)"/><path d="m0-1.5h474" stroke="url(#j)" transform="matrix(-.00000005 -1 -1 .00000004 373.51 473.998)"/><g stroke="url(#k)"><path d="m0-1.5h514.97" transform="matrix(-.00000004 -1 -1 .00000004 435.762 514.969)"/><path d="m0-1.5h514.97" transform="matrix(-.00000004 -1 -1 .00000004 498.014 514.969)"/><path d="m0-1.5h514.97" transform="matrix(-.00000004 -1 -1 .00000004 560.266 514.969)"/><path d="m0-1.5h514.97" transform="matrix(-.00000004 -1 -1 .00000004 622.518 514.969)"/><path d="m0-1.5h514.97" transform="matrix(-.00000004 -1 -1 .00000004 684.77 514.969)"/></g><path d="m745.521 405.998v-405.999953" stroke="url(#l)"/><path d="m807.771 324.998v-324.999953" stroke="url(#m)"/><path d="m870.023 269.998v-269.999953" stroke="url(#n)"/><path d="m932.275 228.998v-228.999953" stroke="url(#o)"/><path d="m994.527 200.998v-200.999953" stroke="url(#p)"/><path d="m0-1.5h185" stroke="url(#q)" transform="matrix(-.00000012 -1 -1 .00000002 1058.28 184.998)"/><path d="m0-1.5h185" stroke="url(#q)" transform="matrix(-.00000012 -1 -1 .00000002 1120.53 184.998)"/><path d="m1181.28 184.998v-184.999953" stroke="url(#r)"/><path d="m1243.54 200.998v-200.999953" stroke="url(#s)"/><path d="m1305.79 223.998v-223.999953" stroke="url(#t)"/><path d="m1368.04 261.998v-261.999953" stroke="url(#u)"/><path d="m1430.29 312.998v-312.999953" stroke="url(#v)"/><path d="m1492.54 393.998v-393.999953" stroke="url(#w)"/><path d="m0-1.5h514.97" stroke="url(#k)" transform="matrix(-.00000004 -1 -1 .00000004 1556.29 514.969)"/><path d="m0-1.5h514.97" stroke="url(#k)" transform="matrix(-.00000004 -1 -1 .00000004 1618.54 514.969)"/><path d="m0-1.5h514.97" stroke="url(#k)" transform="matrix(-.00000004 -1 -1 .00000004 1680.8 514.969)"/><path d="m0-1.5h514.97" stroke="url(#k)" transform="matrix(-.00000004 -1 -1 .00000004 1743.05 514.969)"/><path d="m0-1.5h514.97" stroke="url(#k)" transform="matrix(-.00000004 -1 -1 .00000004 1805.3 514.969)"/><path d="m0-1.5h474" stroke="url(#j)" transform="matrix(-.00000005 -1 -1 .00000004 1867.55 473.998)"/><path d="m0-1.5h428" stroke="url(#i)" transform="matrix(-.00000005 -1 -1 .00000004 1929.8 427.998)"/><path d="m0-1.5h357" stroke="url(#h)" transform="matrix(-.00000006 -1 -1 .00000003 1992.05 356.998)"/><path d="m0-1.5h304" opacity=".8" stroke="url(#g)" transform="matrix(-.00000007 -1 -1 .00000003 2054.31 303.998)"/><path d="m0-1.5h237" opacity=".6" stroke="url(#f)" transform="matrix(-.00000009 -1 -1 .00000002 2116.56 236.998)"/><path d="m0-1.5h229" opacity=".3" stroke="url(#e)" transform="matrix(-.0000001 -1 -1 .00000002 2178.81 228.998)"/><path d="m0 429.662h734" opacity=".05" stroke="url(#y)"/><path d="m1514.06 429.662h727" opacity=".05" stroke="url(#z)"/><path d="m0 365.066h777" opacity=".1" stroke="url(#A)"/><path d="m1470.06 365.066h771" opacity=".1" stroke="url(#B)"/><path d="m0 300.473h834" opacity=".2" stroke="url(#C)"/><path d="m1419.06 300.473h822" opacity=".2" stroke="url(#D)"/><path d="m0 235.877h919" opacity=".3" stroke="url(#E)"/><path d="m1332.06 235.877h909" opacity=".3" stroke="url(#F)"/><path d="m0-1.5h2241.06" opacity=".4" stroke="url(#G)" transform="matrix(1 0 0 -1 0 175.783)"/><path d="m0-1.5h2241.06" opacity=".5" stroke="url(#H)" transform="matrix(1 0 0 -1 0 117.188)"/><path d="m0-1.5h2241.06" opacity=".7" stroke="url(#I)" transform="matrix(1 0 0 -1 0 58.5918)"/><path d="m0-1.5h2241.06" stroke="url(#J)" transform="matrix(1 0 0 -1 0 -.001953)"/></g><path d="m1124.5 179.059c235.99 0 427.14 190.978 427.14 426.767-.03 89.419-28.11 176.579-80.31 249.212-52.2 72.634-125.89 127.083-210.68 155.682-21.36 4.27-29.37-9.07-29.37-20.269 0-14.404.54-60.281.54-117.362 0-40.009-13.35-65.615-28.83-78.952 95.03-10.669 194.88-46.944 194.88-210.716 0-46.945-16.55-84.82-43.78-114.694 4.27-10.669 19.22-54.413-4.28-113.093 0 0-35.77-11.736-117.46 43.743-34.17-9.602-70.47-14.403-106.78-14.403s-72.61 4.801-106.79 14.403c-81.685-54.946-117.457-43.743-117.457-43.743-23.493 58.68-8.543 102.424-4.272 113.093-27.23 29.874-43.781 68.283-43.781 114.694 0 163.239 99.309 200.047 194.35 210.716-12.28 10.67-23.5 29.341-27.23 57.081-24.564 11.202-85.964 29.34-124.407-35.209-8.008-12.803-32.035-44.277-65.672-43.743-35.772.533-14.416 20.271.534 28.273 18.153 10.136 38.976 48.011 43.782 60.281 8.542 24.006 36.306 69.883 143.623 50.145 0 35.742.53 69.35.53 79.486 0 11.199-8 24.009-29.361 20.269-85.072-28.291-159.069-82.63-211.491-155.307-52.423-72.678-80.61-160.002-80.563-249.587 0-235.789 191.143-426.767 427.135-426.767z" stroke="url(#K)" stroke-opacity=".3"/><path d="m697 605.826c0-235.789 191.143-426.767 427.14-426.767 117.13 0 223.21 47.048 300.36 123.273" stroke="url(#L)"/></g><circle cx="1425.41" cy="302.415" fill="#cf232e" r="5" transform="matrix(.93898264 -.34396454 .34396454 .93898264 -17.04528 508.743054)"/><g filter="url(#a)" opacity=".87"><circle cx="1425.41" cy="302.415" fill="#cf222e" r="5" transform="matrix(.93898264 -.34396454 .34396454 .93898264 -17.04528 508.743054)"/></g><path d="m1124.5 179.059c235.99 0 427.14 190.978 427.14 426.767-.03 89.419-28.11 176.579-80.31 249.212-52.2 72.634-125.89 127.083-210.68 155.682-21.36 4.27-29.37-9.07-29.37-20.269 0-14.404.54-60.281.54-117.362 0-40.009-13.35-65.615-28.83-78.952 95.03-10.669 194.88-46.944 194.88-210.716 0-46.945-16.55-84.82-43.78-114.694 4.27-10.669 19.22-54.413-4.28-113.093 0 0-35.77-11.736-117.46 43.743-34.17-9.602-70.47-14.403-106.78-14.403s-72.61 4.801-106.79 14.403c-81.685-54.946-117.457-43.743-117.457-43.743-23.493 58.68-8.543 102.424-4.272 113.093-27.23 29.874-43.781 68.283-43.781 114.694 0 163.238 99.309 200.047 194.35 210.716-12.28 10.67-23.5 29.341-27.23 57.081-24.564 11.202-85.964 29.34-124.407-35.209-8.008-12.803-32.035-44.277-65.672-43.743-35.772.533-14.416 20.271.534 28.273 18.153 10.136 38.976 48.011 43.782 60.281 8.542 24.006 36.306 69.883 143.623 50.145 0 35.742.53 69.35.53 79.486 0 11.199-8 24.009-29.361 20.269-85.072-28.291-159.069-82.63-211.491-155.307-52.423-72.678-80.61-160.002-80.563-249.587 0-235.789 191.143-426.767 427.135-426.767z" fill="url(#M)" fill-opacity=".4" stroke="url(#N)" stroke-opacity=".3" stroke-width="3"/></g></svg>